<svg id="outputsvg" xmlns="http://www.w3.org/2000/svg" viewBox="0 0 405 405"><g id="l6ca2XSRAXRffNBMVsXqLkc"><path id="pJeMVO30M" d="M195.5,317.2a102.22,102.22,0,0,1-2.1-10.6,19.19,19.19,0,0,0-1.5-5.7,14.13,14.13,0,0,1-.9-5.1c0-4.7-.8-5.3-8-6.7-3.6-.7-8.7-2-11.5-2.9s-5.2-1.7-5.5-1.7c-1-.2-10.5-4.9-11-5.5a18.11,18.11,0,0,0-3.4-1.8c-2-.9-2.6-1.6-1.9-2.3s3.6.3,8.9,3c4.4,2.3,8.7,4.1,9.7,4.1a12,12,0,0,1,4.5,1.4,35.58,35.58,0,0,0,8,2,53.88,53.88,0,0,1,6.7,1.2c1.2.5,1.4,0,.8-2.7-.7-3.7-1.9-5-4.3-4.7-2.8.3-14.5-2.8-16.5-4.4a4.23,4.23,0,0,0-2.3-.8c-.8,0-3.4-1.3-5.9-3a34.51,34.51,0,0,0-5-3c-.7,0-9.5-7.1-10.4-8.4-.4-.5-2,.1-3.7,1.3-2.9,2-5.2,2.7-5.2,1.5a21.33,21.33,0,0,1,2.1-3.6c1.8-2.5,1.9-3.2.8-3.9-.8-.5-1-.9-.5-.9s-.2-1.2-1.6-2.7c-3.3-3.7-5.8-7.5-10.1-15.5-2.7-5.2-3.2-6.8-2.1-7.2.9-.4,2.1,1,3.5,4,1.2,2.6,2.5,4.4,3.2,4.1,6.2-2.7,6.7-3.2,6.1-5.9-1-4.7,1.3-3.2,6.1,4.1,4.1,6.3,6.5,9.2,6.5,7.6a54.17,54.17,0,0,0-4.5-6.7c-4.1-5.7-4.8-7.8-2.4-7.8.5,0,.9.7.9,1.5s.4,1.5.8,1.5,1.6,1.5,2.7,3.3,2.4,3.6,3.2,4A2.56,2.56,0,0,1,151,240c0,2,10.8,10.9,19.2,15.8a49.87,49.87,0,0,0,13.3,4.6,5,5,0,0,1,2,.8c.6.3,6,.6,12,.6,9.8,0,12-.4,19.5-3.1a64.42,64.42,0,0,0,32.1-24.6c3-4.4,4.5-5.9,4.7-4.7a4.42,4.42,0,0,1-.8,3.1c-.7.9-.8,1.5-.2,1.5s1.5-1.3,2.2-3c1.5-3.7,4.5-4.2,3.6-.6-.4,1.8,0,2.7,1.7,3.8,4.8,3.1,5.5,2.9,7.8-1.8,1.5-3.1,2.5-4.2,3.2-3.5s.7,1.4,0,2.3a11.64,11.64,0,0,0-1.7,4.3c-.4,1.7-3.5,6.8-7,11.5-6.3,8.4-6.4,8.5-4.8,11.2,2,3.5,1,4.6-2.2,2.4-3.2-2-2.7-2.1-6.7,1.4-8.2,7.3-28.6,16.9-36.6,17.2-3.7.1-4.1.5-5.3,4.8-.8,2.8-.7,2.9,1.8,2.4,1.5-.2,3.6-.6,4.7-.8a25.33,25.33,0,0,0,3.5-.9,16.09,16.09,0,0,1,3.5-1,10.44,10.44,0,0,0,3.1-.9,13.58,13.58,0,0,1,3.6-1.2,17.49,17.49,0,0,0,4.4-1.4c1.1-.5,3.7-1.8,5.9-2.8a59.09,59.09,0,0,0,6.8-3.8c1.9-1.2,3.2-1.5,3.9-.8s.5,1.3-.4,1.8a103.38,103.38,0,0,1-12.8,7c-3,1.3-6.4,2.9-7.5,3.5a29.56,29.56,0,0,1-4.2,1.4,17,17,0,0,0-4,1.3,18.28,18.28,0,0,1-4.8,1c-7.9.5-8.6,1.1-10.6,9.7-1,4.4-2.6,10.9-3.4,14.5a72.11,72.11,0,0,0-1.5,8.2,2.83,2.83,0,0,1-.9,2.2C197.6,323.7,196.5,320.9,195.5,317.2Zm4.2-9.9c-.3-.2-.1-1.9.4-3.6a37.7,37.7,0,0,0,1.4-6.3c.3-1.7,1.1-6,2-9.5,1.9-7.8,3-12.4,3.9-17.4.2-1.1.5-2.4.6-3,.6-2.8-.2-3.5-4.4-3.5-2.5,0-4.7.4-5,.8-.5.9-.8,16.1-.7,34.7.1,9,.4,11.5,1.2,10.2C199.7,308.7,200,307.6,199.7,307.3Zm-13.9-35c-.8-3.3-1.6-4.4-3.9-5.2-1.6-.5-2.9-.8-2.9-.6s-1.1,0-2.6-.5c-2.3-.9-2.6-.7-4,2.5-2,4.9-1.8,5.3,2.4,6.4,2,.5,5.3,1.4,7.2,1.9s3.8.6,4.2.3S186.4,274.6,185.8,272.3Zm37.3,1.7c1.9-1.1,1.6-3.7-.6-5.5a4.89,4.89,0,0,1-1.6-2c-.5-1.1-3.9-1.5-3.9-.4,0,.4-1.4.9-3.2,1.1-3.2.3-3.2.3-5.1,7.9l-.7,2.5,6.7-1.3A60.56,60.56,0,0,0,223.1,274Zm-55.5-4.4a5.54,5.54,0,0,1,1.3-2.9c1.8-1.8,1.3-3.3-1.6-4.6s-4.1-.6-6.1,4.1c-1,2.5-.9,2.9,1.6,4.2C166.1,272.1,167.2,271.9,167.6,269.6Zm64.5.4c2.7,0,3.1-1.6,1.5-5.5-1.3-3.1-1.9-3.5-3.8-3-3.9,1.2-4.7,3.1-2.9,6.9,1,2.1,2,3.1,2.6,2.5A4.28,4.28,0,0,1,232.1,270Zm-73.2-8c1.5-3.2,1.6-4,.5-4-.8,0-1.4-.4-1.4-.8s-1.4-1.8-3-3.1c-2.8-2-3.2-2-4.6-.6a22.7,22.7,0,0,1-3.5,2.6c-2.2,1.1-2.3.9,4.4,6.7,2.1,1.7,4.2,3.2,4.7,3.2S157.8,264.2,158.9,262Zm86.2-.1,5.2-4.2-3.4-2.8A21.14,21.14,0,0,0,243,252a26.82,26.82,0,0,0-4.7,3.4c-3.5,2.8-4,3.6-2.9,4.5a7.88,7.88,0,0,1,2,3.6c.4,1.4,1,2.5,1.5,2.5S242.2,264.1,245.1,261.9Zm-66.1,0c-8.2-3-12-4.9-17.3-8.7-2.6-1.9-5-3.2-5.2-3-.6.5,8.5,6.8,13.3,9.2,4.6,2.4,10.4,4.4,12.7,4.4C183.6,263.8,182,263,179,261.9Zm43.5-1.5c1.1-.8,1.6-1.4,1.2-1.4-1.4,0-7.7,2.9-7.7,3.5C216,263.4,220.1,262,222.5,260.4Zm6.1-2.9c1-.8,1.5-1.4.9-1.4a6.73,6.73,0,0,0-2.9,1.4c-1.1.8-1.5,1.5-1,1.5A7.47,7.47,0,0,0,228.6,257.5Zm11.4-8c0-.2-1.3.4-3,1.3s-3,2.1-3,2.5,1.4-.1,3-1.3A13.74,13.74,0,0,0,240,249.5Zm-96.1,0,2.3-3.4-2.6-3.3c-1.4-1.8-3.1-3.9-3.7-4.6-.8-.9-1.8-.8-5,.8l-4,2.1,2.3,3c5.7,7.4,7,8.9,7.6,8.9C141.2,253,142.6,251.4,143.9,249.5Zm115-2c2.3-2.7,4.1-5.5,4.1-6s-1.6-1.9-3.5-2.8l-3.4-1.6-3.6,4.4-3.7,4.4,2.6,2.7c1.4,1.5,2.2,3.2,1.9,3.7C251.6,255,255.3,251.9,258.9,247.5Z"/><path id="p1CYcQ9ykk" d="M122.8,248.8c-2.6-3.5-9.8-17.9-9.8-19.7a1.23,1.23,0,0,1,1.3-1.1c1.3,0,6.7,11.1,6.7,13.5,0,.6,1.4,2.8,3.1,4.8,2.1,2.5,2.8,4.2,2.2,4.8S124.4,250.9,122.8,248.8Z"/><path id="pjnOxPzX8" d="M269,249.6a10.09,10.09,0,0,1,1.9-3.8c2.1-2.6,7.1-14.3,7.1-16.5a1.44,1.44,0,0,1,1.5-1.3c2.4,0,1.8,4-1.8,11C272.7,248.9,269,253.5,269,249.6Z"/><path id="p7lRB0VYE" d="M83.6,222.5a13.59,13.59,0,0,0-4-1.5c-1.8,0-12.1-10.4-15.2-15.4-1.5-2.4-3.5-4.8-4.5-5.4-1.7-1.1-1.8-.8-1.2,4.1.3,2.8,1.2,5.6,2,6,2.6,1.6.4,2.4-5.9,2.2-6-.2-8.8-1.7-5.1-2.9,1.7-.5,1.9-1.7,1.8-12.1-.1-7.3-.6-12-1.3-12.7-2.4-2.4-1-2.8,8.3-2.8,9,0,9.8.2,12.2,2.6,2,2,2.4,3.1,1.9,5.7a10.24,10.24,0,0,1-3.3,5.4c-2.4,1.9-2.5,2.4-1.2,4,.8,1,1.7,2.2,2.2,2.8s1.6,2.2,2.8,3.8S75.5,209,76,209c2.6,0,3.9-22.9,1.3-23.8a2,2,0,0,1-1.3-1.8c0-1.1,1.9-1.4,8.8-1.4s9.4-.4,12-2a20.12,20.12,0,0,1,3.8-2c.6,0-.4,6.8-1.2,8.2-.3.5-1.3.6-2.2.4a39.19,39.19,0,0,0-6.4-1c-4.4-.4-4.9-.2-5.4,1.9a14.24,14.24,0,0,0-.2,4.6c.3,2.2.7,2.4,4.8,2.1,2.5-.2,5-1,5.6-1.8,2.2-2.7,3.5-1.6,2.8,2.4-.8,4.5-1.9,5.9-3.6,4.5-1.9-1.4-8.5-1.5-9.4-.1-.7,1-.8,4-.5,7.8.1.6,2.3,1,4.9,1,3.6,0,5.4-.5,6.7-2,2.4-2.7,3.5-1.7,3.5,3.3.1,3.6.2,3.9,1.2,2.2a7.7,7.7,0,0,1,2.5-2.8c1.4-.8,3.3-4.6,3.9-7.7a2.65,2.65,0,0,1,1.4-1.8.82.82,0,0,0,.5-1.2c-.2-.4.6-2.9,2-5.4,3-5.6,3.1-7.6.6-7.6a3,3,0,0,1-2.5-1.5c-.4-1.2.6-1.5,5.9-1.5,6.3,0,6.4,0,6.4,2.8a22.49,22.49,0,0,0,2.6,10.7c4.1,9.4,6.1,12.9,8.4,14.4l2.4,1.6-.7-5.2c-.6-4.6-.4-5.1,1.1-4.9a2.79,2.79,0,0,1,2.1,2.2,7.58,7.58,0,0,0,2.8,3.7c3.2,2.4,8.9,1.4,11.1-2,1.8-2.7,1-4.1-2.7-4.8-10.1-1.9-14.5-5.4-13.5-10.6.5-2.4,3.7-5.9,5.5-5.9a1,1,0,0,0,1-.8c0-.4,2.7-.8,6-.7,4.9,0,6.1-.3,6.6-1.7a2.43,2.43,0,0,1,2-1.8c1.6,0,1.9,3.7.4,6a2.25,2.25,0,0,0,.2,2.7c1.2,1.4.4,4.3-1.2,4.3-.6,0-1.5-1.1-2-2.5a6.08,6.08,0,0,0-4.2-3.3c-4-1.1-5-.8-6.6,1.8-1.9,3.1,0,5.7,4.8,6.5,2.2.4,4.2,1.1,4.6,1.6a2.83,2.83,0,0,0,2.2.9c3.3.1,5.6,2.8,5.5,6.6-.1,4.5-2.3,6.9-7.9,8.8-3.3,1.1-5.2,1.2-7.4.5-3.5-1.3-7.6-.8-7.2.9.1.6-.7,1.2-1.8,1.2s-2-.6-2-1.3c0-1-1.7-1.2-6.5-1-6.1.2-9.4-1-6-2.3,1-.4,1.3-1.3.9-2.6-.3-1.1-.7-2.8-.9-3.7-.2-1.2-1.2-1.6-4.5-1.4-4.7.2-5.4.7-6.5,4.1-.5,1.6-.2,2.2,1,2.2,1,0,1.5.7,1.3,1.8-.3,1.3-1.4,1.7-5.4,1.8a21.41,21.41,0,0,0-7.3,1.4c-1.9,1-2.5,1-3.2-.1s-3.5-1.4-10.4-1.5l-9.5-.1,2.1,2.4c2.8,2.9,9.8,6.3,13.1,6.3,1.4,0,4.1-1.3,5.9-3,3.4-2.9,5.5-2.8,4.3.3-.9,2.4-8,5.7-12.2,5.7A17.73,17.73,0,0,1,83.6,222.5ZM118,198c1-.6,1.1-1,.3-1s-1.2-.3-1.2-.7c.4-2.2-.3-2.5-1.6-.7a6.78,6.78,0,0,0-1.5,2.7C114,199.3,116.2,199.2,118,198Zm-53-4.5a1.13,1.13,0,0,0,.6-1.4c-.3-.4-.1-1.3.4-2.1,1.1-1.8-1.1-3.9-4.9-4.6l-3.1-.6v11.1l3-.9A23,23,0,0,0,65,193.5Z"/><path id="pfRs24Wce" d="M231.5,222.8a21.68,21.68,0,0,1-4.6-2.4,5.19,5.19,0,0,0-2.1-1.4c-1.1,0-7.3-6.7-10.8-11.6a74.81,74.81,0,0,0-5.2-6.8c-1.7-1.9-1.8-1.8-1.8,3.2,0,4.2.4,5.3,2.1,6.3q4.65,2.4-6.3,2.4c-4.3,0-6.3-.4-6.3-1.3a1.41,1.41,0,0,1,1-1.3c1.9-.1,2.4-2.7,2.6-12.9.1-11.7-.8-13.8-5.4-12.1q-2.7,1-2.7,3.3c0,1.3-.3,5.5-.7,9.3-1.2,10.7-5,14.5-15.2,15.1-5.1.3-5.6.1-8.8-3.2-1.9-2.1-3.3-4.7-3.4-6.2s-.2-6.2-.2-10.4c-.1-6.9-.3-7.8-2-7.8-1,0-1.7-.5-1.5-1.2.6-1.7,13.8-2,13.8-.3a1.8,1.8,0,0,1-1.1,1.7c-1.7.6-2.7,14-1.4,17.8.9,2.8,4.4,5.9,6.8,6,.4,0,2.1-1.3,3.8-2.9,2.9-2.8,3-3.3,2.8-10.3-.4-9-.8-10.8-2.5-10.8a1.34,1.34,0,0,1-1.4-1.2c0-1,4.1-1.4,16.2-1.6,18.9-.3,21.1,0,22.7,3.4,1.9,4.2,1.3,7-1.9,9.8l-3,2.5,4,5.3c2.2,2.9,4,5.6,4,6.1,0,1.9,3,.4,3.1-1.5,0-1.3.3-6.4.5-11.5.4-7.3.1-9.4-1.1-10.6-3-3-1.7-3.7,7-3.7,5.4,0,9.9-.6,12.2-1.5,2-.8,3.8-1.4,4-1.2s0,1.8-.3,3.5l-.6,3.1-6.4-.2c-7.1-.2-8.4.6-8.4,5.6,0,2.6.2,2.7,4.9,2.7,3.1,0,5.3-.5,6.1-1.5,1.8-2.2,4.4-2,3.5.3a12.34,12.34,0,0,0-1,4.2c-.2,1.8-.7,2.4-2.1,2.2-4.4-.8-9-.8-10.5-.1-1.2.6-1.5,1.7-1,4.6.6,3.7.7,3.8,5.6,4.1,4.2.3,5.2,0,6.6-2,2-2.6,2.3-2.1,3.2,4.4.7,4.5-.4,5.4-3.7,3.3-1.8-1.2-4.5-1.5-10.5-1.4-4.5.2-8.1.6-8.1,1s1.2,1.7,2.8,2.8,3.3,2.5,4,3.1,1.4,1,1.7.9a24.81,24.81,0,0,1,4,.5c3.8.7,8.8-1.3,9.8-3.9.6-1.5,3.7-2.2,3.7-.7a9.85,9.85,0,0,1-1.6,3.1C247.2,223.4,238.5,225.2,231.5,222.8ZM211,194.5c3.1-1.6,3.9-3.1,3.2-5.7-.4-1.7-5.8-4.5-6.8-3.5s-1,10.7-.1,10.7A17.06,17.06,0,0,0,211,194.5Z"/><path id="p12AB5Ucgi" d="M24,215.2c0-.4.9-1.3,1.9-1.9,1.7-1.1,1.9-2.6,2-16.1.1-11.4-.1-15.1-1.1-15.4-1.9-.8-7.8.3-7.8,1.3,0,.5-.6.9-1.3.9-.9,0-1.4-1.6-1.4-4.9l-.2-4.8,3.3,1.6c2.4,1.3,5.6,1.7,12.2,1.5,4.9-.1,9.6-.4,10.4-.7,6.3-2.2,6.4-2.2,6.3.8-.1,1.4-.1,3.6-.2,5-.1,3-2.1,3.3-3.9.5-1.4-2.4-5.4-2.6-7.2-.5-.9,1.1-1.3,5.7-1.4,14.8-.2,12.5,0,13.3,2.1,15.3,1.3,1.2,2.3,2.4,2.3,2.8s-3.6.6-8,.6S24,215.7,24,215.2Z"/><path id="pfaxrwyWb" d="M354.1,210.7a15.92,15.92,0,0,0-3.5-4.7c-1.4-1.4-2.6-2.9-2.6-3.3,0-1.3-10.2-14.8-10.7-14.3-.3.2-.5,4.4-.5,9.2,0,6.9.3,9,1.6,9.9,3,2.2,1.8,3.5-3.4,3.5-3.6,0-5-.4-5-1.4a2.15,2.15,0,0,1,1.4-1.9c1.1-.4,1.4-2.8,1.1-10.9-.4-15.1,0-14-3.7-13.6-1.8.2-3.6.8-4,1.3s-.8,4.1-.8,7.9c0,8.3-2.6,14.6-6.8,16.5a30.92,30.92,0,0,1-7.9,1.8c-6.1.7-9.3-.9-11.8-5.7-1.7-3.3-2.6-17.8-1.1-18.3,1.7-.6-2.7-3.8-4.8-3.5-1.9.3-2.1.9-2.2,8.3,0,4.4-.3,8.5-.7,9.1s.3,3,1.5,5.3,1.8,4.4,1.5,4.8c-.5.4-6,.7-10.4.4-1.8-.1-1.6-2.8.2-3.5,1.1-.4,1.5-2.1,1.5-6.1V196H270v5.2c0,3.4.6,5.8,1.7,7,2.2,2.5,1.3,3.1-4.7,3.1-5.8,0-7.3-.9-4.7-2.7,1.4-1.1,1.7-3,1.7-11.8,0-7.6-.4-10.9-1.5-12.4-2.7-3.6-1.9-4.4,4-4.1,6.1.4,7.9,1.3,5.2,2.8-1.2.7-1.7,2.2-1.7,4.9,0,4.3,0,4.3,7,4.3,5.8,0,6-.2,6-3.7,0-1.8-.7-3.9-1.5-4.6-3-2.5-1.1-3.6,7-4.1,2-.1,10.8,1.1,11.3,1.5.2.3,1.6,0,3-.5,3.6-1.4,5.4.6,2.4,2.7-2,1.3-2.2,2.4-2.2,9.4,0,4.3.5,8.2,1,8.5a1.1,1.1,0,0,1,.5,1.5c-.3.5.6,1.7,2,2.9,3.3,2.6,7.6,1.3,9.1-2.7s1.2-19.4-.4-20a2,2,0,0,1-1.2-1.7c0-1,1-1.2,3.8-.8,2,.3,4.2.5,4.7.5s4.7-.3,9.3-.5l8.2-.5,2.2,3.2A43.08,43.08,0,0,0,345,187c.3.3,2.2,3.1,4.4,6.3s3.9,5.7,4,5.7.2-3.2.3-7c.1-6-.1-7.2-1.8-8-3.6-2-2.3-4,2.9-4.1a48.18,48.18,0,0,1,5.6,0,2.09,2.09,0,0,0,1.7-1c.6-1,1.1-1,2.3,0,2,1.7,19.3,1.8,20.9.2,2.2-2.2,3.4-1.1,3.4,2.9s-1.2,5.1-3.4,2.9c-.6-.6-2.3-.9-3.8-.7l-2.6.3-.3,10.4c-.2,9,0,10.7,1.6,12.3,3,3,2.2,3.9-3,3.7-2.7-.1-5.3,0-5.8.4a2.73,2.73,0,0,1-2.4-.4c-1.3-.8-1.2-1.2.4-2.4s1.9-3,2.1-11.9c.1-5.8-.1-11-.6-11.7-.7-1.1-3.6-.9-7.1.6-1.4.6-1.8.2-1.8-1.6,0-2.2-.1-2.2-1.7-.6s-1.9,4-2.1,15.7c-.3,11.4-.6,14-1.8,14C355.6,213,354.6,212,354.1,210.7Z"/><path id="pazDgVYnz" d="M137.1,168c-.8-.4-1.1-1.6-.6-2.9.5-1.5.2-2.3-1.2-2.7a27.49,27.49,0,0,1-3.6-1.5c-2.4-1.3-3.3-.6-4.7,3.6-.6,1.9-1.8,3.5-2.6,3.5s-1.4-.2-1.4-.5c0-1.9,8.1-16.8,10-18.5a45.65,45.65,0,0,0,3.5-4.3l2.8-3.8-2.1-2.9a15.9,15.9,0,0,1-2.2-3.5c0-1.1,2.3-.4,4.7,1.5l2.5,1.9,4.1-3.2c2.3-1.8,4.8-3.8,5.5-4.4A4.34,4.34,0,0,1,154,129a4.53,4.53,0,0,0,2.3-1.4c2.8-2.9,18.2-8.6,26.9-10.1,3.2-.5,3.9-1.1,4.6-3.8a20,20,0,0,0,.8-3.3,38.18,38.18,0,0,0-5.6.7c-7.2,1.1-19.4,5.2-27.1,9-5.7,2.8-7.8,3.2-6.6,1.2,1-1.6,17-9.1,23.7-11.2a77.07,77.07,0,0,1,11.8-2.6c2.8-.4,5.2-1,5.2-1.5s1.4-7.2,3.1-15.1,3.2-15.2,3.2-16.1c.2-3.6,2.5-1.7,3,2.5a59.57,59.57,0,0,0,1.2,6.7c.3,1.4.7,3.4.9,4.5s.8,3.8,1.4,6,1.4,5.5,1.7,7.4c.8,4.6.9,4.8,5.2,5.5,7.7,1.4,16.9,3.9,21.3,5.8,5.6,2.4,12.3,5.9,13,6.8a10.16,10.16,0,0,0,2.9,1.9c1.7.9,2,1.6,1.2,2.4s-1.6.6-2.8-.5c-2.4-2.1-11.9-6.8-12.5-6.2-.3.2-1.1-.2-1.8-1.1a4.57,4.57,0,0,0-3-1.5,24.92,24.92,0,0,1-6.1-1.6,39.78,39.78,0,0,0-7.9-2,50.74,50.74,0,0,1-5.6-.9c-1.8-.4-2-.1-1.6,2.5.5,3.5,1.1,4,5.5,4.7,8.9,1.2,21.6,6.3,28.9,11.4a9.08,9.08,0,0,0,3.7,1.9c.6,0,1.1.4,1.1.8s1.4,1.8,3.1,3.1c2.7,2,3.4,2.1,6,1.1,3.5-1.5,4.8-.7,3.1,2-1.8,2.9-1.5,3.8,1.9,8.1,1.7,2.1,2.8,3.9,2.4,3.9s.2.8,1.4,1.8c2.4,2,8.3,14.9,7.2,15.7-1.1.6-2.4-1.1-4-5.2l-1.3-3.1-3.8,2c-3.5,1.9-3.8,2.4-3.3,5.1.9,4.6-1.6,3-5.4-3.4s-4.5-5.5-.8,1c1.4,2.4,2.3,4.6,2,4.9-.6.6-4.5-3.3-4.5-4.5-.1-2.4-12-14.8-18.8-19.5-3.8-2.6-10-5.7-11.9-5.9a9.75,9.75,0,0,1-2.6-1.1c-3.7-1.9-21-3.8-26.2-2.8a6.08,6.08,0,0,1-1.9.1,14.27,14.27,0,0,0-4.1.9,52.8,52.8,0,0,1-5.1,1.4c-5,1.1-13.6,5.8-20.8,11.6a67.58,67.58,0,0,0-12.3,13.8c-1.9,2.8-4.1,5.2-4.9,5.2-1.7,0-1.8-.5-.1-2.2a46.5,46.5,0,0,0,5.3-8.3c2.8-5.2-1-.8-4.9,5.7C139.4,167.1,137.9,168.6,137.1,168Zm8.9-17.3a4.85,4.85,0,0,0-1.2-2.2c-.7-.8-1.9-2.1-2.6-3-1.2-1.4-1.6-1.4-3.6.7-2.9,3-6.6,8.3-6.6,9.5,0,.5,1.5,1.6,3.3,2.4,3.2,1.6,3.2,1.5,6.9-2.5C144.3,153.3,146,151.1,146,150.7Zm115.4,6c1.6-1.2,1.7-1.7.6-3.8a36.94,36.94,0,0,0-4.6-5.8l-3.2-3.3-1.8,2.8a19.69,19.69,0,0,1-2.9,3.7c-.7.5-.7.9,0,1.5a26.73,26.73,0,0,1,3.8,4.5C256.2,160.2,256.7,160.2,261.4,156.7ZM159.3,145.2c2.1-2.3,15.6-9.1,19.3-9.8a16.41,16.41,0,0,0,4.3-1.5c3-1.9-6.1.2-11,2.6-8.7,4.2-17.9,10.5-15.2,10.5A5.47,5.47,0,0,0,159.3,145.2Zm-4.2-2.9a18.58,18.58,0,0,1,3.5-2.9c1.9-1.1,1.9-1.2,0-4.8-1.1-2-2.2-3.6-2.6-3.6s-3.1,1.9-5.9,4.1l-5.2,4.1,3.3,2.4C152.2,144.4,153.1,144.5,155.1,142.3Zm92.3-.6,2.8-2.3-5.7-4.7-5.8-4.8-1.9,4.3-1.9,4.3,3.3,2.7C242.2,144.6,243.7,144.6,247.4,141.7Zm-23.5-5.1a9.78,9.78,0,0,0-2.9-1l-2.5-.7,2.5,1.5C223.1,137.6,225.2,137.8,223.9,136.6Zm-56.1-2.4c2-1.6,2.1-2,1-4.5-.7-1.5-1.7-2.7-2.1-2.7s-.6-.4-.2-1-.7-.5-2.5.1c-3.8,1.4-4.6,2.6-2.7,4.7a13.72,13.72,0,0,1,2,3.5C164.1,136.4,164.9,136.4,167.8,134.2Zm65.5-1.7c2.2-4.6,2.2-4.4-1.5-6l-3.3-1.3-1.6,4.1c-1.6,4.1-1.6,4.2.5,5.4C230.7,136.6,231.5,136.3,233.3,132.5ZM215,133.6c-3.7-1.4-5.4-1.1-3,.4a7.9,7.9,0,0,0,4,.9C218.2,134.9,218.1,134.7,215,133.6Zm-6.5-2.3a5.76,5.76,0,0,0-.5-1.8,11.91,11.91,0,0,1-.5-2.6c-.2-1.4-.9-4.5-1.5-7a58.3,58.3,0,0,1-1.6-7.3,46.22,46.22,0,0,0-1.3-6,45.38,45.38,0,0,1-1.5-6.6c-1.1-6.9-3.4-16.5-3.6-14.5-.1,1.6-.2,38.9,0,44.7,0,1.1,1,1.8,2.8,2C208.6,133.1,208.8,133.1,208.5,131.3Zm-26.4-1.7a3.72,3.72,0,0,0,3.2-3.3c.4-1.6.9-3.8,1.3-4.9.6-2.2.5-2.2-5.8-.8-3.4.8-7,1.6-7.7,1.8-2.3.5-2.5,2.7-.6,6.2,1.5,2.8,2,3.1,4.4,2.4A50.09,50.09,0,0,1,182.1,129.6Zm41.9-5.2c0-.7-1.2-1.6-2.7-1.9a27,27,0,0,1-4.6-1.6,3.33,3.33,0,0,0-2.4-.6c-.2.3-1.8.1-3.4-.3-3.3-1-3.3-.9-1.6,4.2,1.5,4.4,1.8,4.7,4.3,5.3,1.1.2,3.3.8,4.9,1.3,2.7.8,3.1.6,4.3-2.1A17.93,17.93,0,0,0,224,124.4Z"/><path id="phLP3EIL" d="M113,167.2a8.74,8.74,0,0,1,1.6-3c.8-1.2,1.3-2.2,1-2.2-.7,0,4.2-9.8,6.8-13.5a39.7,39.7,0,0,0,2.3-3.4c.1-.1.6,0,1.2.3s-.5,3-2.5,6.3a62.77,62.77,0,0,0-5.1,11c-1.2,3.8-2.2,5.3-3.5,5.3C113.8,168,113,167.7,113,167.2Z"/><path id="p1L23m5z4" d="M278,166.3c0-1-1.3-4.4-2.9-7.5s-2.6-5.9-2.3-6.2.1-.6-.4-.6-1.8-1.3-2.7-3c-1.4-2.3-1.5-3-.5-3,.8,0,2.9,2.6,4.8,5.8s3.9,6,4.5,6.4.6.8.1.8-.1,1.1.8,2.5c2,3.1,2.1,6.5.1,6.5A1.66,1.66,0,0,1,278,166.3Z"/></g></svg>